<?xml version="1.0" encoding="utf-8"?>
<!-- Generator: Adobe Illustrator 18.1.1, SVG Export Plug-In . SVG Version: 6.00 Build 0)  -->
<svg version="1.1" id="Layer_1" xmlns="http://www.w3.org/2000/svg" xmlns:xlink="http://www.w3.org/1999/xlink" x="0px" y="0px"
	 viewBox="0 0 50 50" enable-background="new 0 0 50 50" xml:space="preserve">
<rect fill="#EBEBEB" width="50" height="50"/>
<path fill="#EBEBEB" d="M2.7,6.5C2.2,6.4,0.6,6.1,0.3,6.4C-0.4,7,1.5,8.2,2.2,8.3"/>
<g>
	<path fill="#CECECE" d="M2.7,6.4C2.1,6.3,1.5,6.2,0.9,6.2c-0.4,0-0.8,0.1-0.9,0.5c-0.1,0.4,0.3,0.8,0.6,1c0.4,0.3,1,0.6,1.5,0.8
		c0.1,0,0.2-0.2,0.1-0.2c-0.7-0.2-1.6-0.7-2-1.3c-0.5-0.9,2-0.4,2.4-0.3C2.7,6.6,2.8,6.4,2.7,6.4L2.7,6.4z"/>
</g>
<path fill="#EBEBEB" d="M15.1,2.5c0.8-1.3-2.3-1.9-3-1"/>
<g>
	<path fill="#CECECE" d="M15.2,2.5C16,1,12.9,0.5,12.1,1.4c-0.1,0.1,0,0.2,0.1,0.1c0.6-0.7,3.5-0.3,2.9,0.9
		C15,2.6,15.1,2.6,15.2,2.5L15.2,2.5z"/>
</g>
<path fill="#EBEBEB" d="M11.6,1.3c0-1.5-1.9-1.3-2.6-0.4"/>
<g>
	<path fill="#CECECE" d="M11.7,1.3C11.6-0.2,9.7,0,9,0.9C8.9,1,9,1.1,9.1,1c0.7-0.8,2.3-1,2.4,0.4C11.5,1.5,11.7,1.4,11.7,1.3
		L11.7,1.3z"/>
</g>
<path fill="#EBEBEB" d="M14.2,6.7C11.7,6,5.1,1,7.7,0.9c2.3-0.1,6,0.8,7.5,1.6c2.6,1.3,2.1,1.3,1.6,2.3C16.9,4.8,15.3,7,14.2,6.7z"
	/>
<g>
	<path fill="#CECECE" d="M14.2,6.6c-1.7-0.5-3.3-1.7-4.7-2.8C8.8,3.3,8.2,2.7,7.6,2C7.5,1.8,7.3,1.6,7.2,1.3C7.1,0.8,8.4,1,8.6,1
		c2.7,0.1,5.4,0.9,7.8,2.2c0.3,0.2,0.9,0.5,0.8,0.9c0,0.2-0.2,0.5-0.4,0.7C16.2,5.5,15.3,6.8,14.2,6.6c-0.1,0-0.2,0.2-0.1,0.2
		C15.1,7,16,6,16.6,5.3c0.3-0.4,0.8-0.9,0.8-1.5c0-0.4-0.6-0.6-0.8-0.8c-0.7-0.4-1.3-0.7-2.1-1c-1.7-0.7-3.5-1-5.3-1.2
		c-0.5,0-1.8-0.4-2.1,0.3C6.9,1.7,7.7,2.5,8,2.8c0.9,0.9,2,1.7,3.1,2.4c0.9,0.6,2,1.3,3.1,1.6C14.2,6.8,14.3,6.6,14.2,6.6z"/>
</g>
<path fill="#EBEBEB" d="M14.4,3.1c1.7-0.7,4.1-1.2,5.9-1.3c1.2,0,2.5,0.4,3.5,1.2c0.5,0.3,2.1,0.7,1.8,1.4C24.8,6.1,3.1,11,1.5,10.8
	c-2.8-0.3-0.1-1.7,1.1-2.5c0,0,0.9-0.3,0.4-1L1.5,3.5c0,0-0.4-0.7,0.4-0.9l0.6-0.1c0,0,0.8-0.1,1.2,0.5l2.1,3.4L14.4,3.1z"/>
<g>
	<path fill="#CECECE" d="M14.4,3c2.2-0.8,4.9-1.6,7.2-1.2c1,0.2,1.7,0.8,2.6,1.2c0.4,0.2,1.8,0.7,1.2,1.3c-0.5,0.5-1.3,0.7-2,1
		c-1.1,0.4-2.2,0.8-3.3,1.1C14.8,7.9,9.3,9.2,3.9,10.2c-0.6,0.1-1.2,0.2-1.8,0.3c-0.6,0.1-2.3,0-1.5-0.9c0.4-0.5,1-0.8,1.6-1.1
		C2.4,8.3,2.8,8.1,3,7.9c0.4-0.5,0-1-0.2-1.5c-0.3-0.9-0.7-1.8-1-2.8C1.7,3.5,1.7,3.3,1.6,3.2c-0.3-0.6,0.6-0.8,1-0.8
		c1,0,1.4,1.1,1.9,1.8c0.4,0.7,0.9,1.4,1.3,2.1c0,0,0,0,0.1,0C8.7,5.2,11.5,4.1,14.4,3c0.1,0,0.1-0.2,0-0.2c-2,0.8-3.9,1.5-5.9,2.3
		c-0.8,0.3-1.7,0.7-2.5,1c-0.1,0,0,0.1,0,0C5.8,5.9,5.7,5.7,5.6,5.6C5.2,5,4.9,4.4,4.5,3.8C4,3,3.6,2.1,2.6,2.2
		C1.9,2.2,1,2.5,1.5,3.3c0.5,0.9,0.7,2,1.1,3c0.1,0.3,0.6,1.2,0.2,1.6C2.3,8.3,1.7,8.6,1.2,8.9c-0.7,0.5-1.5,1.4-0.2,1.7
		c0.6,0.2,1.2,0.1,1.8,0c2.3-0.3,4.5-0.9,6.7-1.4c2.9-0.7,5.8-1.4,8.7-2.2c2.2-0.6,4.4-1.2,6.4-2.1c0.4-0.2,0.8-0.4,1.1-0.7
		c0.6-0.6-0.5-1.1-0.9-1.3c-1.5-0.7-2.8-1.6-4.6-1.5c-1.9,0.1-3.9,0.6-5.7,1.3C14.3,2.8,14.2,3,14.4,3z"/>
</g>
<path fill="#EBEBEB" d="M3.9,8.7c-0.7,0.8-0.8,5.4,0.6,4.6c1-0.5,1.7-2.8,1.8-3.7c0.2-1.5-0.2-1.6-0.9-1.5C5.3,8.1,4.4,8.1,3.9,8.7z
	"/>
<g>
	<path fill="#CECECE" d="M3.8,8.7c-0.6,0.9-0.6,2.4-0.5,3.5c0.1,1,0.6,1.8,1.5,0.9c1-1,1.6-3,1.5-4.4C6.3,7.4,4.3,8.1,3.8,8.7
		c-0.1,0.1,0,0.2,0.1,0.1c0.4-0.5,1-0.6,1.6-0.6c0.8,0,0.7,0.9,0.6,1.5c-0.1,1.2-0.6,2.6-1.5,3.4c-1,0.9-1.2-1.1-1.2-1.6
		c0-0.8,0-2,0.5-2.7C4,8.6,3.9,8.5,3.8,8.7z"/>
</g>
<path fill="#EBEBEB" d="M17.7,9c1.5,0.4-0.2,3-1.4,2.9"/>
<g>
	<path fill="#CECECE" d="M17.7,9.1c1.5,0.4-0.3,2.8-1.3,2.8c-0.1,0-0.2,0.2-0.1,0.2c1.2,0,3.2-2.6,1.5-3.1
		C17.7,8.9,17.6,9.1,17.7,9.1L17.7,9.1z"/>
</g>
<path fill="#EBEBEB" d="M16,12.5c1.1,1.1-0.4,2.3-1.5,2.2"/>
<g>
	<path fill="#CECECE" d="M16,12.5c1,1.1-0.3,2.1-1.4,2c-0.1,0-0.2,0.2-0.1,0.2c1.3,0.1,2.7-1.2,1.7-2.4C16,12.3,15.9,12.5,16,12.5
		L16,12.5z"/>
</g>
<path fill="#EBEBEB" d="M13.9,6.9c-1.3,2.4-2.2,10.8-0.3,8.9c1.7-1.7,3.7-5,4.2-6.7c0.9-2.8,0.5-2.5-0.6-2.9
	C17.2,6.2,14.4,5.8,13.9,6.9z"/>
<g>
	<path fill="#CECECE" d="M13.8,6.6c-1.1,2.1-1.4,4.8-1.4,7.1c0,0.6-0.1,1.6,0.4,2.1c0.5,0.5,1.6-1,1.8-1.3c1.2-1.4,2.2-3,2.9-4.7
		c0.3-0.8,0.6-1.6,0.8-2.4c0.1-0.4,0.2-0.8,0.1-1.2c-0.2-0.5-1.2-0.5-1.6-0.5C15.8,5.8,14.4,5.7,13.8,6.6c-0.1,0.1,0.1,0.1,0.1,0
		c0.5-0.8,4.3-1.2,4.2,0.3c-0.1,1.3-0.7,2.6-1.3,3.7c-0.7,1.4-1.6,2.8-2.6,4c-0.4,0.5-1.3,1.7-1.6,0.5c-0.2-0.8-0.1-1.8-0.1-2.7
		c0.1-1.9,0.4-4.1,1.3-5.9C14,6.6,13.9,6.5,13.8,6.6z"/>
</g>
<path fill="#EBEBEB" d="M22.7,2c-0.1,1.1,0.8,1.4,1.6,0.9"/>
<g>
	<path fill="#CECECE" d="M22.6,2.1c0,0.4,0.1,0.9,0.5,1.1c0.4,0.2,0.9,0.1,1.2-0.1c0.1,0,0.1-0.2,0-0.2c-0.3,0.1-0.7,0.2-1,0.1
		c-0.4-0.1-0.5-0.6-0.5-1C22.8,1.9,22.6,2,22.6,2.1L22.6,2.1z"/>
</g>
<path fill="#EBEBEB" d="M6.8,7.3c0.3-0.5,1,0,0.6,0.4C7.2,8,6.8,7.6,6.8,7.3L6.8,7.3z"/>
<path fill="#EBEBEB" d="M8.2,6.9c0.3-0.5,1,0,0.6,0.4C8.5,7.5,8.1,7.1,8.2,6.9L8.2,6.9z"/>
<path fill="#EBEBEB" d="M9.5,6.4c0.3-0.5,1,0,0.6,0.4C9.8,7.1,9.5,6.7,9.5,6.4L9.5,6.4z"/>
<path fill="#EBEBEB" d="M10.8,6c0.3-0.5,1,0,0.6,0.4C11.1,6.6,10.8,6.2,10.8,6L10.8,6z"/>
<path fill="#EBEBEB" d="M12.1,5.5c0.3-0.5,1,0,0.6,0.4C12.5,6.2,12.1,5.8,12.1,5.5L12.1,5.5z"/>
<path fill="#EBEBEB" d="M13.5,5.1c0.3-0.5,1,0,0.6,0.4C13.8,5.8,13.4,5.3,13.5,5.1L13.5,5.1z"/>
<path fill="#EBEBEB" d="M14.8,4.6c0.3-0.5,1,0,0.6,0.4C15.1,5.3,14.8,4.9,14.8,4.6L14.8,4.6z"/>
<path fill="#EBEBEB" d="M16.1,4.2c0.3-0.5,1,0,0.6,0.4C16.5,4.9,16.1,4.4,16.1,4.2L16.1,4.2z"/>
<path fill="#EBEBEB" d="M17.5,3.7c0.3-0.5,1,0,0.6,0.4C17.8,4.4,17.4,4,17.5,3.7L17.5,3.7z"/>
<path fill="#CECECE" d="M6.9,7.3C7,7.1,7.4,7.2,7.5,7.4c0,0.2-0.2,0.3-0.3,0.2C7,7.6,6.9,7.4,6.9,7.2c0-0.1-0.1-0.1-0.2,0
	c0,0,0,0,0,0.1C6.7,7.4,6.9,7.4,6.9,7.3C6.9,7.3,6.9,7.3,6.9,7.3c0-0.1-0.1-0.1-0.1-0.1c0,0.2,0.1,0.5,0.3,0.6
	c0.2,0.1,0.5-0.2,0.5-0.4c0-0.2-0.1-0.4-0.3-0.4C7.1,6.9,6.9,7.1,6.8,7.3C6.7,7.4,6.8,7.4,6.9,7.3z"/>
<g>
	<path fill="#CECECE" d="M8.2,6.9C8.4,6.7,8.8,6.7,8.8,7c0,0.2-0.2,0.3-0.3,0.2C8.3,7.2,8.3,6.9,8.3,6.8c0-0.1-0.1-0.1-0.2,0
		c0,0,0,0,0,0.1C8,7,8.2,7,8.2,6.9C8.2,6.9,8.3,6.8,8.2,6.9c0-0.1-0.1-0.1-0.1-0.1c0,0.2,0.1,0.5,0.3,0.6C8.7,7.5,8.9,7.2,9,7
		c0-0.2-0.1-0.4-0.3-0.4C8.4,6.5,8.2,6.6,8.1,6.8C8,7,8.2,7,8.2,6.9z"/>
</g>
<path fill="#CECECE" d="M9.6,6.4c0.1-0.2,0.5-0.2,0.6,0.1c0,0.2-0.2,0.3-0.3,0.2C9.7,6.7,9.6,6.5,9.6,6.3c0-0.1-0.1-0.1-0.2,0
	c0,0,0,0,0,0.1C9.4,6.5,9.5,6.5,9.6,6.4C9.6,6.4,9.6,6.4,9.6,6.4c0-0.1-0.1-0.1-0.1-0.1c0,0.2,0.1,0.5,0.3,0.6
	C10,7,10.3,6.8,10.3,6.6c0-0.2-0.1-0.4-0.3-0.4C9.8,6.1,9.5,6.2,9.4,6.4C9.3,6.5,9.5,6.5,9.6,6.4z"/>
<g>
	<path fill="#CECECE" d="M10.9,6c0.1-0.2,0.5-0.2,0.6,0.1c0,0.2-0.2,0.3-0.3,0.2C11,6.3,10.9,6,10.9,5.9c0-0.1-0.1-0.1-0.2,0
		c0,0,0,0,0,0.1C10.7,6.1,10.8,6.1,10.9,6C10.9,6,10.9,6,10.9,6c0-0.1-0.1-0.1-0.1-0.1c0,0.2,0.1,0.5,0.3,0.6
		c0.2,0.1,0.5-0.2,0.5-0.4c0-0.2-0.1-0.4-0.3-0.4c-0.2-0.1-0.5,0.1-0.6,0.3C10.7,6.1,10.8,6.1,10.9,6z"/>
</g>
<g>
	<path fill="#CECECE" d="M12.2,5.5c0.1-0.2,0.5-0.2,0.6,0.1c0,0.2-0.2,0.3-0.3,0.2c-0.2-0.1-0.2-0.3-0.2-0.4c0-0.1-0.1-0.1-0.2,0
		c0,0,0,0,0,0.1C12,5.6,12.2,5.6,12.2,5.5C12.2,5.5,12.2,5.5,12.2,5.5c0-0.1-0.1-0.1-0.1-0.1c0,0.2,0.1,0.5,0.3,0.6
		c0.2,0.1,0.5-0.2,0.5-0.4c0-0.2-0.1-0.4-0.3-0.4c-0.2-0.1-0.5,0.1-0.6,0.3C12,5.6,12.2,5.6,12.2,5.5z"/>
</g>
<path fill="#CECECE" d="M13.6,5.1c0.1-0.2,0.5-0.2,0.6,0.1c0,0.2-0.2,0.3-0.3,0.2c-0.2-0.1-0.2-0.3-0.2-0.4c0-0.1-0.1-0.1-0.2,0
	c0,0,0,0,0,0.1C13.3,5.2,13.5,5.2,13.6,5.1C13.6,5.1,13.6,5.1,13.6,5.1C13.5,5,13.5,5,13.4,5c0,0.2,0.1,0.5,0.3,0.6
	c0.2,0.1,0.5-0.2,0.5-0.4c0-0.2-0.1-0.4-0.3-0.4c-0.2-0.1-0.5,0.1-0.6,0.3C13.3,5.2,13.5,5.2,13.6,5.1z"/>
<g>
	<path fill="#CECECE" d="M14.9,4.6c0.1-0.2,0.5-0.2,0.6,0.1c0,0.2-0.2,0.3-0.3,0.2c-0.2-0.1-0.2-0.3-0.2-0.4c0-0.1-0.1-0.1-0.2,0
		c0,0,0,0,0,0.1C14.7,4.7,14.8,4.8,14.9,4.6C14.9,4.6,14.9,4.6,14.9,4.6c0-0.1-0.1-0.1-0.1-0.1c0,0.2,0.1,0.5,0.3,0.6
		c0.2,0.1,0.5-0.2,0.5-0.4c0-0.2-0.1-0.4-0.3-0.4c-0.2-0.1-0.5,0.1-0.6,0.3C14.7,4.7,14.8,4.7,14.9,4.6z"/>
</g>
<g>
	<path fill="#CECECE" d="M16.2,4.2C16.3,4,16.7,4,16.8,4.3c0,0.2-0.2,0.3-0.3,0.2c-0.2-0.1-0.2-0.3-0.2-0.4c0-0.1-0.1-0.1-0.2,0
		c0,0,0,0,0,0.1C16,4.3,16.2,4.3,16.2,4.2C16.2,4.2,16.2,4.2,16.2,4.2c0-0.1-0.1-0.1-0.1-0.1c0,0.2,0.1,0.5,0.3,0.6
		c0.2,0.1,0.5-0.2,0.5-0.4c0-0.2-0.1-0.4-0.3-0.4c-0.2-0.1-0.5,0.1-0.6,0.3C16,4.3,16.2,4.3,16.2,4.2z"/>
</g>
<path fill="#CECECE" d="M17.5,3.7c0.1-0.2,0.5-0.2,0.6,0.1c0,0.2-0.2,0.3-0.3,0.2c-0.2-0.1-0.2-0.3-0.2-0.4c0-0.1-0.1-0.1-0.2,0
	c0,0,0,0,0,0.1C17.3,3.8,17.5,3.9,17.5,3.7C17.5,3.7,17.6,3.7,17.5,3.7c0-0.1-0.1-0.1-0.1-0.1c0,0.2,0.1,0.5,0.3,0.6
	c0.2,0.1,0.5-0.2,0.5-0.4c0-0.2-0.1-0.4-0.3-0.4c-0.2-0.1-0.5,0.1-0.6,0.3C17.3,3.8,17.5,3.8,17.5,3.7z"/>
<g>
	<path fill="#CECECE" d="M36,36.6c0-0.5,1.9-0.3,1.6,0.3c-0.1,0.1,0.1,0.2,0.1,0c0.4-0.9-1.9-1.2-2-0.3C35.8,36.8,36,36.7,36,36.6
		L36,36.6z"/>
</g>
<g>
	<path fill="#CECECE" d="M38.6,37c0-0.3,0-0.8,0.2-1.1c0-0.1,0.2,0.1,0.2,0.1c0.1,0.1,0,0.3,0,0.4c0,0.3-0.1,0.5-0.1,0.8
		c0,0.1,0.2,0,0.2,0c0-0.3,0.2-0.7,0.2-1c0-0.2-0.1-0.5-0.4-0.4c-0.2,0.1-0.3,0.4-0.3,0.6c-0.1,0.2-0.1,0.5-0.1,0.7
		C38.4,37.2,38.6,37.1,38.6,37L38.6,37z"/>
</g>
<g>
	<path fill="#CECECE" d="M46.2,37.7c0.1-0.8-2.2-1-2,0c0,0.1,0.2,0,0.2-0.1c-0.1-0.6,1.8-0.4,1.7,0.1C46,37.9,46.2,37.8,46.2,37.7
		L46.2,37.7z"/>
</g>
<path fill="#CECECE" d="M43.6,37.5c0-0.2,0.1-0.5,0.1-0.7c0-0.2,0-0.5-0.2-0.6c-0.2-0.1-0.4,0.2-0.4,0.4c-0.1,0.3,0,0.7-0.1,1
	c0,0.1,0.2,0,0.2,0c0-0.2,0-0.5,0-0.7c0-0.1,0-0.3,0.1-0.4c0.1-0.1,0.1-0.1,0.2,0c0.1,0.2,0.1,0.4,0.1,0.6c0,0.2,0,0.3,0,0.5
	C43.4,37.7,43.6,37.6,43.6,37.5L43.6,37.5z"/>
<path fill="#CECECE" d="M44.1,36.5c0,0.3-2.8-0.1-3.1-0.2c-0.5-0.1-1-0.1-1.4-0.2c-0.5-0.1-1.5,0.1-1.5-0.6c0-0.3,2.8,0.1,3.1,0.2
	c0.5,0.1,1,0.1,1.4,0.2C43.2,36,44.2,35.8,44.1,36.5c0,0.1,0.2,0,0.2,0c0.1-0.7-0.6-0.7-1.2-0.7c-0.6-0.1-1.2-0.1-1.8-0.2
	c-0.5-0.1-3.3-0.7-3.3,0.1c0,0.1-0.1,0.4,0,0.4c0.4,0.2,0.8,0.2,1.2,0.3c0.6,0.1,1.2,0.1,1.8,0.2c0.5,0.1,3.3,0.7,3.3-0.1
	C44.3,36.3,44.1,36.4,44.1,36.5z"/>
<g>
	<path fill="#CECECE" d="M48.7,45.7c-0.1,1.1-0.1,2.2-0.7,3.1c-0.7,1-2,0.9-3.2,0.8c-1.3-0.1-2.7-0.4-4-0.6c-1-0.1-2-0.2-3-0.3
		c-1.7-0.2-3.8,0.1-5.4-0.8c-1.6-1-0.9-3.3-0.7-4.8c0.1-1.2,0.3-2.4,0.4-3.6c0.1-1.2,0.6-2.5,1.9-2.8c1-0.2,2.3,0,3.3,0.2
		c1.1,0.2,2.2,0.3,3.4,0.4c0.9,0.1,1.7,0.2,2.6,0.3c1.6,0.2,3.6-0.1,5,0.8c1.5,0.9,0.9,3,0.8,4.4C48.9,43.9,48.8,44.8,48.7,45.7
		c0,0.1,0.2,0,0.2,0c0.1-1,0.2-1.9,0.3-2.9c0.2-1.5,0.6-3.1-0.7-4.3c-1.1-1-3.2-0.8-4.6-0.9c-1.1-0.1-2.1-0.2-3.2-0.3
		c-1.3-0.1-2.5-0.3-3.8-0.5c-1.3-0.2-3.1-0.6-4.1,0.6c-0.9,1.1-0.8,2.5-1,3.8c-0.1,1.1-0.2,2.3-0.4,3.4c-0.2,1.1-0.3,2.3,0.6,3.2
		c0.7,0.7,1.7,0.8,2.6,0.9c1.8,0.2,3.6,0.3,5.4,0.5c1.9,0.2,3.8,0.6,5.7,0.7c1,0,1.8-0.2,2.4-1c0.8-0.9,0.7-2.2,0.8-3.3
		C48.9,45.5,48.7,45.6,48.7,45.7z"/>
</g>
<g>
	<path fill="#CECECE" d="M34.9,36.7c0.3,1.7-1.2,2.8-2.8,2.6c-0.1,0-0.2,0.2-0.1,0.2c1.7,0.3,3.4-1.1,3-2.9
		C35,36.5,34.8,36.6,34.9,36.7L34.9,36.7z"/>
</g>
<g>
	<path fill="#CECECE" d="M47,37.9c-0.7,1.7,0.6,3.3,2.3,3.4c0.1,0,0.2-0.2,0.1-0.2c-1.6-0.1-2.9-1.6-2.2-3.2
		C47.2,37.9,47,37.8,47,37.9L47,37.9z"/>
</g>
<g>
	<path fill="#CECECE" d="M45.8,49.8c-0.3-1.7,1.2-2.8,2.8-2.6c0.1,0,0.2-0.2,0.1-0.2c-1.7-0.3-3.4,1.1-3,2.9
		C45.7,50,45.8,49.9,45.8,49.8L45.8,49.8z"/>
</g>
<g>
	<path fill="#CECECE" d="M33.7,48.5c0.7-1.7-0.6-3.3-2.3-3.4c-0.1,0-0.2,0.2-0.1,0.2c1.6,0.1,2.9,1.6,2.2,3.2
		C33.5,48.6,33.6,48.6,33.7,48.5L33.7,48.5z"/>
</g>
<path fill="#CECECE" d="M36.4,36.8c-0.3,2.5-0.4,5-0.8,7.4c-0.2,1.4-0.6,2.9-0.6,4.4"/>
<g>
	<path fill="#CECECE" d="M36.3,36.8c-0.2,2-0.3,3.9-0.6,5.9c-0.2,2-0.8,3.9-0.8,5.9c0,0.1,0.2,0,0.2,0c0-1.9,0.5-3.7,0.7-5.6
		c0.3-2.1,0.4-4.1,0.6-6.2C36.5,36.7,36.3,36.8,36.3,36.8L36.3,36.8z"/>
</g>
<path fill="#CECECE" d="M37.2,36.9c-0.3,2.5-0.4,5-0.8,7.4c-0.2,1.4-0.6,2.9-0.6,4.4"/>
<g>
	<path fill="#CECECE" d="M37.1,36.9c-0.2,2-0.3,3.9-0.6,5.9c-0.2,2-0.8,3.9-0.8,5.9c0,0.1,0.2,0,0.2,0c0-1.9,0.5-3.7,0.7-5.6
		c0.3-2.1,0.4-4.1,0.6-6.2C37.3,36.8,37.2,36.8,37.1,36.9L37.1,36.9z"/>
</g>
<path fill="#CECECE" d="M45.6,37.8c-0.3,2.5-0.7,4.9-0.9,7.4c-0.1,1.4,0,3-0.4,4.4"/>
<g>
	<path fill="#CECECE" d="M45.5,37.8c-0.2,2-0.5,3.9-0.7,5.9c-0.2,2-0.1,4-0.5,5.9c0,0.1,0.1,0.1,0.2,0c0.4-1.8,0.3-3.8,0.5-5.6
		c0.2-2.1,0.5-4.1,0.8-6.2C45.7,37.7,45.5,37.8,45.5,37.8L45.5,37.8z"/>
</g>
<path fill="#CECECE" d="M44.8,37.7c-0.3,2.5-0.7,4.9-0.9,7.4c-0.1,1.4,0,3-0.4,4.4"/>
<g>
	<path fill="#CECECE" d="M44.7,37.8c-0.2,2-0.5,3.9-0.7,5.9c-0.2,2-0.1,4-0.5,5.9c0,0.1,0.1,0.1,0.2,0c0.4-1.8,0.3-3.8,0.5-5.6
		c0.2-2.1,0.5-4.1,0.8-6.2C44.9,37.6,44.7,37.7,44.7,37.8L44.7,37.8z"/>
</g>
<g>
	<path fill="#CECECE" d="M37.3,39.7c0,0.2-0.9,0-1,0c-0.1,0-0.2,0-0.3,0c-0.1,0-0.4,0-0.3-0.2c0-0.1,0-0.1,0-0.2c0-0.2,0.8,0,1,0
		c0.1,0,0.2,0,0.3,0c0.1,0,0.4,0,0.3,0.2C37.4,39.5,37.3,39.6,37.3,39.7c0,0.1,0.2,0,0.2,0c0-0.2,0.1-0.4-0.2-0.5
		c-0.2,0-0.4,0-0.6-0.1c-0.4,0-1.1-0.3-1.1,0.3c0,0.2-0.1,0.4,0.2,0.5c0.2,0,0.4,0,0.6,0.1c0.4,0,1.1,0.3,1.1-0.3
		C37.5,39.5,37.3,39.6,37.3,39.7z"/>
</g>
<g>
	<path fill="#CECECE" d="M45.7,40.6c0,0.2-0.9,0-1,0c-0.1,0-0.2,0-0.3,0c-0.1,0-0.4,0-0.3-0.2c0-0.1,0-0.1,0-0.2c0-0.2,0.8,0,1,0
		c0.1,0,0.2,0,0.3,0c0.1,0,0.4,0,0.3,0.2C45.7,40.5,45.7,40.5,45.7,40.6c0,0.1,0.2,0,0.2,0c0-0.2,0.1-0.4-0.2-0.5
		c-0.2,0-0.4,0-0.6-0.1c-0.4,0-1.1-0.3-1.1,0.3c0,0.2-0.1,0.4,0.2,0.5c0.2,0,0.4,0,0.6,0.1c0.4,0,1.1,0.3,1.1-0.3
		C45.8,40.4,45.7,40.5,45.7,40.6z"/>
</g>
<path fill="#CECECE" d="M36.6,46.3c0,0.2-0.9,0-1,0c-0.1,0-0.2,0-0.3,0c-0.1,0-0.4,0-0.3-0.2c0-0.1,0-0.1,0-0.2c0-0.2,0.8,0,1,0
	c0.1,0,0.2,0,0.3,0c0.1,0,0.4,0,0.3,0.2C36.6,46.2,36.6,46.2,36.6,46.3c0,0.1,0.2,0,0.2,0c0-0.2,0.1-0.4-0.2-0.5
	c-0.2,0-0.4,0-0.6-0.1c-0.4,0-1.1-0.3-1.1,0.3c0,0.2-0.1,0.4,0.2,0.5c0.2,0,0.4,0,0.6,0.1c0.4,0,1.1,0.3,1.1-0.3
	C36.8,46.1,36.6,46.2,36.6,46.3z"/>
<path fill="#CECECE" d="M44.9,47.2c0,0.2-0.9,0-1,0c-0.1,0-0.2,0-0.3,0c-0.1,0-0.4,0-0.3-0.2c0-0.1,0-0.1,0-0.2c0-0.2,0.8,0,1,0
	c0.1,0,0.2,0,0.3,0c0.1,0,0.4,0,0.3,0.2C44.9,47.1,44.9,47.1,44.9,47.2c0,0.1,0.2,0,0.2,0c0-0.2,0.1-0.4-0.2-0.5
	c-0.2,0-0.4,0-0.6-0.1c-0.4,0-1.1-0.3-1.1,0.3c0,0.2-0.1,0.4,0.2,0.5c0.2,0,0.4,0,0.6,0.1c0.4,0,1.1,0.3,1.1-0.3
	C45.1,47,44.9,47.1,44.9,47.2z"/>
<g>
	<path fill="#CECECE" d="M7.6,32.5c0.3-0.9,0.5-1.7,0.9-2.5c0.6-1,1.7-1.7,2.6-2.4c1.4-1.2,2.5-2.6,3-4.5c0.9-3.6-2-6.3-5.3-7
		C6,15.5,2.7,16.1,1,18.6c-1,1.4-1.1,3.1-0.7,4.8c0.5,2,1.9,3.4,3.2,4.9c1.1,1.2,1.3,2.6,1.5,4.2c0,0,0,0,0.1,0
		c0.8,0.1,1.6,0.1,2.4,0.2C7.6,32.6,7.7,32.4,7.6,32.5c-0.5-0.1-1-0.2-1.5-0.2c-0.3,0-0.5,0-0.8-0.1C5,32.2,5,31.3,5,31
		c-0.3-2-1.5-3.1-2.8-4.5c-1.5-1.8-2.4-4.1-1.8-6.4c0.6-2,2.4-3.3,4.4-3.8c3.4-0.8,7.9,0.6,8.9,4.2c0.7,2.3-0.5,4.7-2.1,6.3
		c-1.2,1.2-2.9,2-3.6,3.7c-0.3,0.7-0.5,1.4-0.7,2.1C7.4,32.6,7.6,32.6,7.6,32.5z"/>
</g>
<g>
	<path fill="#CECECE" d="M5.5,16c-1.5,2-1.8,3.9-1.3,6.3c0.3,1.6,0.9,3.1,1.1,4.7c0.3,1.7,0.3,3.5,0.2,5.3c0,0.1,0.2,0,0.2,0
		c0.2-2.9-0.1-5.6-0.9-8.4c-0.3-1.2-0.7-2.4-0.7-3.7c0-1.5,0.6-2.8,1.5-4C5.7,16,5.6,15.9,5.5,16L5.5,16z"/>
</g>
<g>
	<path fill="#CECECE" d="M9.5,16.4c0.7,1.3,1.1,2.6,0.9,4.1c-0.2,1.4-0.9,2.8-1.5,4.2c-1.1,2.4-1.7,5-2,7.7c0,0.1,0.2,0,0.2,0
		c0.1-1.6,0.4-3.2,0.8-4.7c0.4-1.5,1.1-2.9,1.7-4.3c0.5-1.1,0.9-2.3,1-3.5c0.1-1.2-0.4-2.4-1-3.5C9.6,16.2,9.4,16.4,9.5,16.4
		L9.5,16.4z"/>
</g>
<path fill="#CECECE" d="M6.1,35.1c0.4,0.1,0.7,0.1,1.1,0.2c0.4,0.1,0.6,0.3,0.4,0.7c-0.1,0.3-0.3,0.7-0.5,1
	c-0.3,0.5-0.8,0.5-1.3,0.4c-1-0.1-1.1-0.8-1.4-1.6c-0.1-0.5,0.1-0.7,0.6-0.7C5.4,35.1,5.8,35.1,6.1,35.1c0.1,0,0.2-0.2,0.1-0.2
	c-0.4,0-1.9-0.3-2,0.4c-0.1,0.5,0.1,1,0.3,1.5c0.2,0.5,0.5,0.7,1,0.8c0.5,0.1,1,0.1,1.4-0.1c0.4-0.2,0.6-0.8,0.7-1.2
	C7.8,36,8,35.5,7.8,35.3c-0.4-0.3-1.1-0.3-1.6-0.4C6.1,34.9,6,35.1,6.1,35.1z"/>
<g>
	<path fill="#CECECE" d="M5.1,32.3C5,33.2,4.7,34.1,4.5,35"/>
	<g>
		<path fill="#CECECE" d="M5,32.3c-0.2,0.9-0.4,1.8-0.6,2.7c0,0.1,0.2,0,0.2,0c0.2-0.9,0.4-1.8,0.6-2.7C5.2,32.1,5.1,32.2,5,32.3
			L5,32.3z"/>
	</g>
</g>
<g>
	<path fill="#CECECE" d="M7.5,32.5c0,0.9,0.2,1.9,0.2,2.8"/>
	<g>
		<path fill="#CECECE" d="M7.4,32.5c0,0.9,0.2,1.8,0.2,2.8c0,0.1,0.2,0,0.2-0.1c0-0.9-0.2-1.8-0.2-2.8C7.5,32.3,7.4,32.4,7.4,32.5
			L7.4,32.5z"/>
	</g>
</g>
<g>
	<path fill="#CECECE" d="M6.3,32.4c-0.1,0.8-0.1,1.8-0.2,2.6"/>
	<g>
		<path fill="#CECECE" d="M6.2,32.4C6.1,33.3,6.1,34.1,6,35c0,0.1,0.2,0,0.2,0c0.1-0.9,0.1-1.7,0.2-2.6C6.4,32.2,6.2,32.3,6.2,32.4
			L6.2,32.4z"/>
	</g>
</g>
<g>
	<path fill="#CECECE" d="M4.4,35.2c-0.1,0.3,0.2,0.6,0.5,0.5c0.3,0,0.4-0.4,0.5-0.7c0-0.1-0.2,0-0.2,0c0,0.2-0.1,0.4-0.2,0.5
		c-0.2,0.1-0.4-0.2-0.4-0.4C4.6,35,4.4,35.1,4.4,35.2L4.4,35.2z"/>
</g>
<g>
	<path fill="#CECECE" d="M5.2,35c0,0.3,0,0.7,0.4,0.7c0.2,0,0.3-0.1,0.4-0.2c0.1-0.2,0.1-0.3,0.2-0.5c0.1-0.1-0.1-0.2-0.1,0
		c-0.1,0.2-0.1,0.6-0.3,0.6c-0.3,0-0.3-0.4-0.3-0.6C5.4,34.9,5.2,35,5.2,35L5.2,35z"/>
</g>
<g>
	<path fill="#CECECE" d="M7.5,35.5c0,0.2-0.2,0.4-0.4,0.2C7,35.6,6.9,35.4,7,35.2c0-0.1-0.2,0-0.2,0c0,0.3,0,0.6,0.3,0.7
		c0.3,0.1,0.6-0.2,0.6-0.5C7.7,35.3,7.5,35.4,7.5,35.5L7.5,35.5z"/>
</g>
<g>
	<path fill="#CECECE" d="M6.8,35.2c0,0.2-0.1,0.5-0.3,0.5c-0.3-0.1-0.2-0.5-0.2-0.6c0-0.1-0.2,0-0.2,0.1c0.1,0.2,0,0.3,0.1,0.5
		c0.1,0.2,0.2,0.3,0.4,0.3c0.3,0,0.5-0.4,0.5-0.7C6.9,35,6.8,35.1,6.8,35.2L6.8,35.2z"/>
</g>
<g>
	<path fill="#CECECE" d="M44.3,32.6c0.4,0,1.5,0.4,1.8,0c0.2-0.2,0.2-0.6,0.3-0.8c0.2-0.8,0.1-1.6,0.2-2.4c0.2-1.9,0.2-3.6-0.4-5.4
		c-0.1-0.3-0.2-0.9-0.6-1.1c-0.3-0.1-0.8-0.1-1.1-0.1c-0.8-0.1-1.4,1.4-1.6,2c-0.7,1.6-0.7,3.3-1,5.1c-0.1,0.4-0.5,2.3,0.1,2.5
		C42.6,32.6,43.6,32.5,44.3,32.6c0.1,0,0.2-0.2,0.1-0.2c-0.5,0-0.9-0.1-1.4-0.1c-0.2,0-0.9,0-1-0.2c-0.1-0.5,0-1,0-1.5
		c0.1-1.2,0.3-2.4,0.4-3.6c0.1-0.7,0.3-1.3,0.5-1.9c0.2-0.5,0.9-2.2,1.7-2c0.2,0,0.3,0,0.5,0.1c0.7,0.1,0.8,0.6,1,1.2
		c0.5,1.5,0.5,3,0.4,4.5c-0.1,1.2-0.1,2.4-0.4,3.5c-0.1,0.4-1.4,0.1-1.7,0.1C44.3,32.4,44.2,32.6,44.3,32.6z"/>
</g>
<g>
	<path fill="#CECECE" d="M45,26.4c0.3,0,0.7,0,0.9,0.2c0.2,0.3,0.1,1,0.1,1.3c0,0.8-0.2,1.6-0.2,2.5c0,0.2,0,1-0.3,1
		c-0.2,0-0.5,0-0.7,0c-0.4,0-0.7-0.1-1.1-0.1c-0.2,0-0.4-0.1-0.7-0.1c-0.4,0-0.3-0.4-0.3-0.7c0-0.8,0.2-1.6,0.3-2.4
		c0.1-0.7,0-2,1-1.9C44.3,26.3,44.7,26.4,45,26.4c0.1,0,0.2-0.2,0.1-0.2c-0.5-0.1-1.1-0.2-1.7-0.1c-0.5,0.1-0.6,1.2-0.6,1.5
		c-0.2,1-0.4,2.3-0.3,3.3c0.1,0.5,0.6,0.4,1,0.5c0.6,0.1,1.2,0.1,1.8,0.1c0.4,0,0.5-0.4,0.5-0.7c0.2-1.1,0.3-2.4,0.3-3.6
		c0-0.9-0.2-1-1.1-1C45,26.2,44.9,26.4,45,26.4z"/>
</g>
<g>
	<path fill="#CECECE" d="M43.9,27.2c0.1,0.6-0.2,1.1-0.1,1.7c0.1,0.4,0.3,0.7,0,1.2c-0.1,0.2-0.2,0.3-0.2,0.5c0,0.1,0.2,0,0.2,0
		c0-0.3,0.3-0.6,0.4-0.8c0.1-0.2-0.1-0.5-0.1-0.7c-0.1-0.4,0.1-0.8,0.1-1.1c0.1-0.3,0-0.5,0-0.8C44,27,43.8,27.1,43.9,27.2
		L43.9,27.2z"/>
</g>
<g>
	<path fill="#CECECE" d="M44.7,27.3c0.1,0.6-0.2,1.1-0.1,1.7c0.1,0.4,0.3,0.7,0,1.2c-0.1,0.2-0.2,0.3-0.2,0.5c0,0.1,0.2,0,0.2,0
		c0-0.3,0.3-0.6,0.4-0.8c0.1-0.2-0.1-0.5-0.1-0.7c-0.1-0.4,0.1-0.8,0.1-1.1c0.1-0.3,0-0.5,0-0.8C44.8,27.1,44.7,27.2,44.7,27.3
		L44.7,27.3z"/>
</g>
<g>
	<path fill="#CECECE" d="M45.1,23.8c0.1,0.1,0.1,0.3,0.1,0.5c-0.1,0.2-0.4,0.1-0.5,0c-0.1-0.1-0.1-0.4,0.1-0.5
		C44.8,23.7,44.9,23.7,45.1,23.8c0.1,0,0.2-0.1,0.1-0.2c-0.1,0-0.2-0.1-0.3-0.1c-0.1,0-0.3,0.1-0.4,0.2c-0.2,0.2-0.2,0.5-0.1,0.7
		c0.5,0.6,1.3-0.3,0.8-0.8C45.1,23.5,45,23.7,45.1,23.8z"/>
</g>
<g>
	<path fill="#CECECE" d="M44.9,23.6c0.2-0.4,0.3-0.7,0.3-1.1c0-0.8-0.1-1.6,0-2.4c0.2-1.2,0.9-2.2,2.1-2.3c0.7-0.1,1.6,0,1.9,0.8
		c0.4,1.1-1.9,1.3-2.5,1.8c-0.3,0.3-0.4,0.7-0.5,1.1C45.9,22.3,45.7,23,44.9,23.6c0,0,0,0.2,0.2,0.1c0.6-0.4,0.9-0.9,1.1-1.6
		c0.1-0.4,0.2-0.9,0.4-1.3c0.3-0.6,0.9-0.8,1.5-0.9c0.9-0.3,1.8-0.8,1.2-1.8c-0.6-1.1-2.7-0.5-3.3,0.2c-0.4,0.4-0.7,1-0.8,1.6
		c-0.1,0.5-0.2,1.1-0.1,1.6c0,0.7,0.2,1.5-0.2,2.1C44.6,23.7,44.8,23.7,44.9,23.6L44.9,23.6z"/>
</g>
<g>
	<g>
		<path fill="#CECECE" d="M34.4,5.5c-1.1-0.5-1.8-1.8-2.4-2.7c-0.1-0.3-0.2-0.5-0.3-0.8c-0.1-0.3-0.2-1.4,0.5-1.2
			c0.6,0.2,1,1,1.3,1.5c0.1,0.1,0.2,0,0.2-0.1c0-0.5,0.1-1.3,0.8-1.4c0.7,0,0.6,1.2,0.5,1.5c-0.1,1.1-0.9,2-0.9,3.2
			c0,0.1,0.2,0,0.2,0c0.1-1.1,0.7-2.1,0.9-3.2c0.1-0.5,0.1-1.3-0.4-1.6c-0.9-0.5-1.3,1.1-1.3,1.6c0.1,0,0.1-0.1,0.2-0.1
			c-0.3-0.5-0.9-1.6-1.5-1.6c-0.6,0-0.8,0.6-0.7,1.1c0,0.8,0.6,1.7,1.1,2.3c0.4,0.6,1,1.4,1.8,1.8C34.4,5.7,34.5,5.5,34.4,5.5
			L34.4,5.5z"/>
	</g>
</g>
<g>
	<g>
		<g>
			<g>
				<path fill="#CECECE" d="M25.5,24.5c0.3,0,0.8,0,1-0.2c0.2-0.2,0.1-0.8,0.1-1c0-0.7-1.2-0.4-1.6-0.4c-0.3,0-0.6,0-0.9,0.2
					C23.8,23.2,24,23.8,24,24c0,0.5,0,0.5,0.5,0.6C24.8,24.6,25.2,24.5,25.5,24.5c0.1,0,0.2-0.2,0.1-0.2c-0.4,0-0.9,0.1-1.3,0
					c-0.1,0-0.1-0.6-0.1-0.7c0-0.3,0-0.4,0.3-0.5c0.1,0,0.3,0,0.4,0c0.4,0,0.9-0.1,1.3,0c0.3,0,0.2,0.7,0.2,0.9
					c0,0.4-0.5,0.3-0.8,0.3C25.5,24.3,25.4,24.5,25.5,24.5z"/>
			</g>
		</g>
		<g>
			<g>
				<path fill="#CECECE" d="M23.2,24.9c0-0.7-0.2-1.3-0.1-2c0.1-0.8,1.7-0.6,2.2-0.6c0.5,0,1.3-0.2,1.7,0.1c0.5,0.3,0.4,1.8,0.4,2.3
					c0,0.1,0.2,0,0.2-0.1c0-0.6,0.1-2-0.5-2.4c-0.2-0.1-0.6-0.1-0.8,0c-0.5,0-1,0-1.5,0c-0.6,0-1.3,0-1.7,0.5c-0.4,0.5,0,1.8,0,2.4
					C23.1,25.1,23.2,25,23.2,24.9L23.2,24.9z"/>
			</g>
		</g>
		<g>
			<g>
				<g>
					<path fill="#CECECE" d="M25.1,26.4c3.3-0.2,4.6,5.2,0.9,5.5c-1.4,0.1-3-0.7-3.3-2.1C22.4,28.2,23.5,26.7,25.1,26.4
						c0.1,0,0.2-0.2,0-0.2c-1.6,0.2-2.5,1.5-2.6,3.1c-0.1,1.9,1.7,2.9,3.4,2.8c1.6,0,2.6-1.5,2.5-3c-0.1-1.7-1.6-3-3.3-2.9
						C25,26.2,25,26.4,25.1,26.4z"/>
				</g>
			</g>
			<g>
				<g>
					<path fill="#CECECE" d="M25.2,27.6c2-0.1,2.8,3.1,0.6,3.3c-0.8,0.1-1.7-0.4-1.9-1.2C23.6,28.6,24.3,27.7,25.2,27.6
						c0.1,0,0.2-0.2,0-0.2c-1,0.2-1.6,0.9-1.6,1.9c-0.1,1.2,1,1.8,2.1,1.8c1,0,1.7-0.9,1.6-1.8c-0.1-1.1-0.9-1.9-2-1.9
						C25.2,27.4,25.1,27.6,25.2,27.6z"/>
				</g>
			</g>
		</g>
		<g>
			<g>
				<g>
					<path fill="#CECECE" d="M26.8,33.1c1.3,0,3.4,0.1,4.4-0.9c0.3-0.3,0.1-0.9,0.1-1.3c0-0.9-0.1-1.8,0-2.7c0-1,0.3-3-0.9-3.4
						c-1.4-0.4-3-0.1-4.4,0c-1.2,0.1-2.5,0-3.7,0.1c-0.9,0-2.5,0-2.8,1.1c-0.4,1.4,0.1,3.1,0.2,4.5c0,0.6-0.1,1.5,0.1,2
						c0.3,0.5,1.1,0.5,1.6,0.6C23.2,33.4,25.1,33.2,26.8,33.1c0.1,0,0.2-0.2,0.1-0.2c-0.9,0-1.8,0-2.7,0.1c-0.9,0.1-1.8,0.1-2.7,0
						c-0.5,0-0.9-0.1-1.3-0.4c-0.4-0.2-0.2-0.8-0.2-1.2c0-1.5-0.3-3.1-0.3-4.6c0-0.5,0-1,0.5-1.3c0.4-0.2,0.9-0.2,1.3-0.3
						c0.8-0.1,1.6-0.1,2.4-0.1c1,0,2-0.1,3-0.1c1.1-0.1,3.7-0.6,4.1,0.8c0.4,1.5,0.1,3.2,0.2,4.7c0,0.4,0,0.7,0.1,1.1
						c0.1,0.7-0.7,0.9-1.2,1c-1,0.2-2.1,0.3-3.1,0.3C26.8,32.9,26.7,33.1,26.8,33.1z"/>
				</g>
			</g>
			<g>
				<g>
					<g>
						<g>
							<path fill="#CECECE" d="M29.2,26.2c-0.4,0-0.7,0.3-0.6,0.7c0,0.3,0.4,0.6,0.7,0.5c0.4-0.1,0.5-0.5,0.5-0.8
								C29.7,26.2,29.3,25.9,29.2,26.2c-0.2,0.1-0.1,0.2,0,0.1c0-0.1,0,0,0.1,0c0.1,0,0.1,0,0.2,0c0.1,0.1,0.1,0.2,0.2,0.3
								c0,0.2-0.1,0.5-0.3,0.6c-0.2,0.1-0.4-0.1-0.5-0.3c-0.1-0.3,0.1-0.5,0.3-0.5C29.2,26.3,29.3,26.1,29.2,26.2z"/>
						</g>
					</g>
					<g>
						<g>
							<path fill="#CECECE" d="M29.2,27.8c-0.2,0-0.4,0.2-0.3,0.4c0,0.2,0.2,0.3,0.4,0.3c0.2-0.1,0.3-0.3,0.3-0.5
								C29.5,27.8,29.3,27.7,29.2,27.8c-0.2,0.1-0.1,0.2,0,0.1c0,0,0,0,0,0c0,0,0,0-0.1,0c0.2,0,0.2,0.3,0,0.3
								c-0.2,0-0.3-0.3-0.1-0.3C29.2,28,29.3,27.9,29.2,27.8C29.3,27.9,29.3,27.8,29.2,27.8z"/>
						</g>
					</g>
				</g>
				<g>
					<g>
						<path fill="#CECECE" d="M28.6,24.6c-0.1-0.3,0.2-0.5,0.5-0.4c0.3,0,0.6,0.2,0.5,0.6c0,0.1,0.2,0,0.2,0c0.2-1.1-1.7-0.9-1.4,0
							C28.5,24.8,28.6,24.6,28.6,24.6L28.6,24.6z"/>
					</g>
				</g>
			</g>
		</g>
		<g>
			<g>
				<g>
					<path fill="#CECECE" d="M19.6,28.3c-0.8-0.1-0.8,1.8,0,1.6c0.1,0,0.2-0.2,0.1-0.2c-0.6,0.1-0.7-1.3-0.2-1.3
						C19.6,28.5,19.7,28.3,19.6,28.3L19.6,28.3z"/>
				</g>
			</g>
			<g>
				<g>
					<path fill="#CECECE" d="M31.3,28c0.6-0.1,0.6,1.3,0.1,1.3c-0.1,0-0.2,0.2-0.1,0.2c0.8,0,0.9-1.8,0-1.6
						C31.2,27.8,31.2,28,31.3,28L31.3,28z"/>
				</g>
			</g>
		</g>
		<g>
			<g>
				<g>
					<path fill="#CECECE" d="M19.8,31.4c1.2-0.1,2.3-0.1,3.5-0.1c0.1,0,0.2-0.2,0.1-0.2c-1.2,0-2.3,0-3.5,0.1
						C19.8,31.2,19.7,31.4,19.8,31.4L19.8,31.4z"/>
				</g>
			</g>
			<g>
				<g>
					<path fill="#CECECE" d="M28,31c1.1-0.1,2.2-0.1,3.3-0.1c0.1,0,0.2-0.2,0.1-0.2c-1.1,0-2.2,0-3.3,0.1C27.9,30.9,27.8,31,28,31
						L28,31z"/>
				</g>
			</g>
		</g>
	</g>
	<g>
		<g>
			<path fill="#CECECE" d="M31.8,29.1c0.4-0.6,1-1.4,0.9-2.2c-0.1-0.9-1-2.8,0.9-2.3c1.8,0.4,3.6,2.1,5.6,1.2
				c3.4-1.4,2.6-7.1-0.4-8.4c-1.9-0.8-4.1,0.1-5.9,0.7c-1.2,0.5-2.4,0.9-3.7,1.1c-1.4,0.2-2.9,0-4.3,0c-3.5-0.1-7.2,1-8,4.8
				c-0.5,2.1,0.1,4.6,2.3,5.5c0.1,0,0.2-0.1,0.1-0.2c-1.9-0.8-2.5-2.8-2.3-4.7c0.2-2.4,1.8-4.1,4-4.8c2.3-0.8,4.8-0.4,7.2-0.4
				c2.5-0.1,4.6-1.2,6.9-1.8c1.1-0.3,2.3-0.4,3.4-0.1c1.3,0.4,2.1,1.6,2.6,2.9c0.4,1.1,0.3,2.3,0,3.4c-0.6,1.8-2.3,2.3-4,1.9
				c-1-0.2-1.8-0.7-2.7-1.1c-0.5-0.2-1.3-0.5-1.8,0c-0.3,0.3-0.2,0.9-0.1,1.3c0.1,0.3,0.2,0.6,0.3,1c0.2,0.8-0.5,1.7-0.9,2.3
				C31.6,29.1,31.7,29.2,31.8,29.1L31.8,29.1z"/>
		</g>
	</g>
	<g>
		<g>
			<path fill="#CECECE" d="M19,28.7c-1.9-0.9-1.8-3.6-1.3-5.2c0.8-2.6,3.5-3.3,5.9-3.3c2.1,0,4.2,0.2,6.4-0.2
				c2.3-0.4,4.3-1.8,6.6-1.9c2.3,0,3.7,1.8,3.9,3.9c0.1,1-0.1,2-0.9,2.7c-1,0.9-2.5,0.3-3.6-0.1c-1.3-0.5-3-1.7-4.2-0.4
				c-1,1.1,0.5,2.8-0.2,4c-0.1,0.1,0.1,0.2,0.1,0c0.3-0.6,0.3-1.1,0.1-1.8c-0.1-0.5-0.2-0.9-0.2-1.3c0-1.4,1.5-1.4,2.5-1.1
				c1.5,0.5,3.8,2.1,5.4,0.9c1.1-0.8,1.3-2.3,1-3.6c-0.3-2-1.6-3.2-3.6-3.4c-2.4-0.2-4.7,1.4-7,1.9c-2.6,0.6-5.4,0-8,0.3
				c-1.9,0.2-3.4,1.2-4.2,2.9c-0.7,1.4-0.7,3.5,0,4.9c0.2,0.5,0.7,0.8,1.2,1C19,28.9,19.1,28.7,19,28.7L19,28.7z"/>
		</g>
	</g>
</g>
<g>
	<path fill="#CECECE" d="M1.4,46.3c0,0.7,0.1,3.6,1.3,3.5c1.6-0.1,3.3-0.2,4.8-0.4c1.3-0.2,1.3-1.1,1.3-2.3
		c-0.1-1.2-0.3-2.5-0.4-3.7c-0.1-0.9,0.1-3-1.1-3.3c-0.7-0.2-1.5,0-2.1,0.1c-0.9,0.1-1.9,0.3-2.8,0.3c-0.4,0-0.8-0.1-1.1,0.3
		c-0.4,0.6-0.4,1.4-0.3,2.1C1.1,44,1.3,45.2,1.4,46.3c0,0.1,0.2,0,0.1-0.1c-0.1-0.7-0.1-1.3-0.2-2c-0.1-0.8-0.2-1.5-0.1-2.3
		c0-0.4,0.1-1.2,0.6-1.2c0.4,0,0.7,0,1.1-0.1c1.3-0.1,2.6-0.4,3.9-0.5c0.8,0,1.1,0.3,1.3,1.1c0.2,0.6,0.2,1.3,0.2,2
		c0.1,0.8,0.1,1.7,0.2,2.5c0.1,0.7,0.2,1.3,0.2,2c0,0.4,0,0.7-0.2,1.1c-0.2,0.4-1,0.4-1.4,0.5c-1.3,0.2-2.6,0.2-3.8,0.3
		c-0.3,0-0.6,0.1-0.8,0.1c-0.4-0.1-0.6-0.7-0.7-1c-0.2-0.8-0.3-1.6-0.3-2.4C1.5,46.1,1.4,46.2,1.4,46.3z"/>
</g>
<path fill="#CECECE" d="M2.3,42.6L2.3,42.6C2.3,42.6,2.3,42.6,2.3,42.6l0,0.4c0,0.1,0,0.2,0.1,0.3l0,0c0,0,0,0,0,0c0,0,0,0,0,0
	l-0.1-0.3l0-0.2c0,0,0.1,0,0.1-0.1c0,0,0,0,0,0c0,0,0,0,0,0c0,0,0,0,0,0c0,0,0,0,0-0.1c0,0,0-0.1,0-0.2c0-0.1,0-0.1-0.1-0.2
	C2.5,42,2.5,42,2.4,42l-0.1,0c0,0,0,0,0,0.1c0,0,0,0.1,0,0.2l0,0.2C2.3,42.5,2.3,42.5,2.3,42.6z M2.4,42.1
	C2.4,42.1,2.4,42.1,2.4,42.1c0.1,0,0.1,0,0.1,0c0,0,0,0.1,0,0.1c0,0.2,0,0.3-0.1,0.3l0,0l0-0.4L2.4,42.1z"/>
<path fill="#CECECE" d="M3.3,42.3c0-0.2-0.1-0.3-0.1-0.4c0,0,0,0,0,0c0,0,0,0-0.1,0l-0.1,0c0,0,0,0.1,0,0.2c0,0,0,0.1,0,0.1
	c0,0.3,0,0.6-0.1,0.9l0,0c0,0,0,0,0,0c0,0,0,0,0,0c0,0,0.1,0,0.1-0.1c0,0,0-0.1,0-0.1c0,0,0-0.1,0-0.1l0.2,0c0,0.1,0.1,0.2,0.1,0.2
	c0,0,0,0,0,0c0,0,0,0,0.1,0c0,0,0,0,0-0.1l0,0c0,0,0-0.1,0-0.1c0-0.1,0-0.1,0-0.1l0-0.1C3.4,42.6,3.3,42.5,3.3,42.3z M3.1,42.8
	c0-0.1,0-0.3,0-0.7c0,0,0,0.1,0,0.2c0,0.1,0,0.2,0.1,0.2c0,0.1,0,0.1,0,0.2c0,0,0,0.1,0,0.1C3.2,42.8,3.1,42.8,3.1,42.8z"/>
<path fill="#CECECE" d="M3.7,43c0,0,0,0.1,0.1,0.1l0,0c0,0,0.1,0,0.1,0c0,0,0.1-0.1,0.1-0.1c0-0.1,0-0.1,0-0.2c0-0.1,0-0.2-0.1-0.2
	c0,0,0-0.1-0.1-0.1c0,0,0-0.1-0.1-0.1c0,0,0-0.1-0.1-0.1c0,0,0-0.1,0-0.1c0,0,0,0,0-0.1c0-0.1,0-0.1,0.1-0.1c0,0,0,0,0,0
	c0,0,0,0,0,0c0,0,0,0,0,0c0,0,0,0-0.1,0c-0.1,0-0.1,0.1-0.1,0.1c0,0,0,0.1,0,0.1c0,0.1,0,0.2,0.1,0.3c0,0,0.1,0.1,0.1,0.1
	c0,0,0.1,0.1,0.1,0.1c0,0,0,0.1,0,0.1c0,0,0,0.1,0,0.2c0,0,0,0.1,0,0.1c0,0,0,0-0.1,0L3.7,43L3.7,43z"/>
<path fill="#CECECE" d="M4.2,42.9c0,0,0,0.1,0.1,0.1l0,0c0,0,0.1,0,0.1,0s0.1-0.1,0.1-0.1c0-0.1,0-0.1,0-0.2c0-0.1,0-0.2-0.1-0.2
	c0,0,0-0.1-0.1-0.1c0,0,0-0.1-0.1-0.1c0,0,0-0.1-0.1-0.1c0,0,0-0.1,0-0.1c0,0,0,0,0-0.1c0-0.1,0-0.1,0.1-0.1c0,0,0,0,0,0
	c0,0,0,0,0,0c0,0,0,0,0,0c0,0,0,0-0.1,0c-0.1,0-0.1,0.1-0.1,0.1c0,0,0,0.1,0,0.1c0,0.1,0,0.2,0.1,0.3c0,0,0.1,0.1,0.1,0.1
	c0,0,0.1,0.1,0.1,0.1c0,0,0,0.1,0,0.1c0,0,0,0.1,0,0.2c0,0,0,0.1,0,0.1c0,0,0,0-0.1,0L4.2,42.9L4.2,42.9z"/>
<path fill="#CECECE" d="M4.7,42.3L4.7,42.3C4.7,42.3,4.7,42.3,4.7,42.3l0,0.4c0,0.1,0,0.2,0.1,0.3l0,0c0,0,0,0,0,0c0,0,0,0,0,0
	l-0.1-0.3l0-0.2c0,0,0.1,0,0.1-0.1c0,0,0,0,0,0c0,0,0,0,0,0c0,0,0,0,0,0c0,0,0,0,0-0.1c0,0,0-0.1,0-0.2c0-0.1,0-0.1-0.1-0.2
	c0-0.1-0.1-0.1-0.2-0.1l-0.1,0c0,0,0,0,0,0.1c0,0,0,0.1,0,0.2l0,0.2C4.8,42.2,4.8,42.3,4.7,42.3z M4.8,41.8
	C4.8,41.8,4.8,41.8,4.8,41.8c0.1,0,0.1,0,0.1,0c0,0,0,0.1,0,0.1c0,0.2,0,0.3-0.1,0.3l0,0l0-0.4L4.8,41.8z"/>
<path fill="#CECECE" d="M5.4,42.6c0,0.1,0,0.1,0.1,0.2c0,0.1,0.1,0.1,0.2,0.1c0.2,0,0.3-0.2,0.2-0.6l0-0.2l0,0c0-0.1,0-0.2-0.1-0.3
	c-0.1-0.1-0.2-0.2-0.4-0.2c0,0,0,0-0.1,0c0,0,0,0.1,0,0.1c0,0.1,0,0.2,0,0.4l0,0c0,0,0,0,0,0l0,0.1C5.3,42.4,5.4,42.5,5.4,42.6z
	 M5.4,41.9c0-0.1,0-0.1,0-0.1c0,0,0-0.1,0.1-0.1c0,0,0.1,0,0.1,0c0,0,0.1,0.1,0.1,0.1l0,0c0,0,0,0.1,0,0.2c0,0.1,0,0.2,0,0.2
	c0,0,0,0.1,0,0.2c0,0,0,0.1,0,0.1c0,0,0,0.1,0,0.1c0,0,0,0.1,0,0.1c0,0,0,0-0.1,0c0,0-0.1-0.1-0.1-0.1c0-0.1-0.1-0.3-0.1-0.5l0-0.2
	L5.4,41.9z"/>
<path fill="#CECECE" d="M6.2,42.1c0,0,0.1,0.1,0.1,0.3c0,0.1,0.1,0.1,0.1,0.2c0,0.1,0.1,0.1,0.1,0.1c0,0,0,0,0,0c0,0,0,0,0,0
	c0,0,0,0,0-0.1c-0.1-0.1-0.1-0.2-0.2-0.4C6.4,42.2,6.3,42.1,6.2,42.1c0.1-0.1,0.1-0.1,0.1-0.1c0,0,0-0.1,0-0.1c0,0,0-0.1,0-0.1
	l0-0.1c0-0.1,0-0.1-0.1-0.1c-0.1,0-0.1,0-0.2,0c0,0-0.1,0-0.1,0.1c0,0.1,0,0.3,0.1,0.5c0,0.2,0.1,0.4,0.1,0.4c0,0.1,0,0.1,0,0.2l0,0
	l0.1,0l0-0.1c0-0.1-0.1-0.2-0.1-0.4L6.2,42.1L6.2,42.1z M6.3,41.7C6.3,41.7,6.3,41.7,6.3,41.7c0,0.1,0,0.1,0,0.1c0,0,0,0.1,0,0.1
	c0,0.1,0,0.1-0.1,0.1c0,0,0-0.1,0-0.2s0-0.2,0-0.2l0,0C6.2,41.6,6.2,41.6,6.3,41.7z"/>
<path fill="#CECECE" d="M7,42.7C7,42.7,7,42.7,7,42.7C7,42.6,7,42.6,7,42.7c0.1-0.2,0-0.3,0-0.6c0-0.2-0.1-0.4-0.1-0.5l0,0l0.1,0
	c0,0,0,0,0,0c0,0,0,0,0,0c0,0,0,0-0.1,0l0,0l-0.3,0c0,0,0,0,0,0c0,0,0,0,0,0c0,0,0.1,0,0.2,0c0,0,0,0,0,0c0,0.1,0,0.2,0.1,0.5
	c0,0.3,0.1,0.4,0.1,0.4c0,0,0,0.1,0,0.1L7,42.7L7,42.7z"/>
<g>
	<path fill="#CECECE" d="M4,44.2c-1,0.6-1.3,1.8-0.7,2.8c0.6,1,2,1,2.8,0.5c0.9-0.5,1.2-1.8,0.7-2.7C6.2,43.7,4.8,43.7,4,44.2
		c-0.2,0.1-0.2,0.2-0.1,0.2c0.8-0.4,1.8-0.4,2.5,0.2c0.8,0.7,0.5,2-0.3,2.7c-0.7,0.6-1.8,0.5-2.5,0c-1-0.8-0.7-2.3,0.3-2.9
		C4.1,44.2,4.1,44.1,4,44.2L4,44.2z"/>
</g>
<g>
	<path fill="#CECECE" d="M3.3,45c0,0.5,0.2,0.7,0.5,1c0.1,0.1,0.5,0.8,0.8,0.7c0.3-0.1,0.3-0.5,0.2-0.7c-0.1-0.4-0.3-0.6-0.2-1
		c0.1-0.3,0.2-0.6,0.2-1c0-0.1-0.1,0-0.1,0c0,0.4-0.2,0.8-0.2,1.2c0,0.3,0.1,0.5,0.2,0.8c0.1,0.2,0.1,0.4-0.2,0.5
		c-0.1-0.1-0.1-0.1-0.2-0.2C4.1,46.2,4.1,46.1,4,46c-0.3-0.3-0.6-0.5-0.6-1C3.4,44.9,3.3,44.9,3.3,45L3.3,45z"/>
</g>
<g>
	<path fill="#CECECE" d="M6.5,44.8c-0.6,0.1-1.5,1-1,1.6C5.7,46.6,6,46.2,6,46.1c0.2-0.2,0.4,0,0.6,0c0.2,0,0.3-0.2,0.4-0.3
		c0.1-0.1-0.1-0.1-0.1,0c-0.3,0.4-0.5,0-0.8,0.1C6,45.9,5.9,46,5.8,46.2c-0.2,0.2-0.3,0-0.3-0.2c0-0.2,0.1-0.4,0.2-0.5
		C5.9,45.3,6.2,45,6.5,45C6.6,44.9,6.6,44.8,6.5,44.8L6.5,44.8z"/>
</g>
<g>
	<path fill="#CECECE" d="M34.4,9.8c0.2,1.6,0.2,3.4,1.8,4.3c1.4,0.8,3,0,3.8-1.2c0.6-0.9,0.8-3-0.5-3.5C38.9,9,37.8,9.1,37,9
		c-1-0.2-2-0.3-3-0.5c-1.3-0.2-2.6-0.3-3.9-0.5c-0.5-0.1-1.2-0.3-1.7-0.1c-1.3,0.6-1.3,2.7-0.8,3.8c0.7,1.6,2.6,2,4,1.3
		c0.6-0.3,1-1,1.3-1.6c0.2-0.4,0.4-0.9,0.6-1.3C33.6,9.6,34.2,8.9,34.4,9.8c0,0.1,0.2,0,0.2-0.1c-0.1-0.6-0.5-0.7-1-0.3
		c-0.3,0.3-0.4,0.7-0.5,1c-0.4,0.9-0.7,1.8-1.6,2.3c-2,1.3-4.1-0.6-4.1-2.6c0-0.5,0.2-1,0.4-1.5C28.2,8,28.8,8,29.4,8.1
		c0.7,0.1,1.3,0.2,2,0.3c1.7,0.2,3.4,0.4,5.2,0.7c0.7,0.1,1.4,0.2,2.1,0.3c0.8,0.1,1.4,0.2,1.6,1.1c0.5,2.2-1.5,4.3-3.7,3.5
		c-1.8-0.6-1.8-2.7-2-4.3C34.6,9.6,34.4,9.7,34.4,9.8z"/>
</g>
<g>
	<path fill="#CECECE" d="M36.2,13.3c1.3,1.2,2.9,0.1,3.5-1.2c0.3-0.5,0.5-1.2,0.3-1.8c-0.2-0.5-1.1-0.5-1.5-0.6
		c-0.8-0.1-1.6-0.2-2.4-0.3c-0.3,0-0.6-0.1-0.8,0.2c-0.3,0.3-0.2,0.9-0.1,1.3C35.3,11.7,35.6,12.6,36.2,13.3
		c0.1,0.1,0.2-0.1,0.2-0.1c-0.6-0.7-0.9-1.7-1.1-2.7c-0.1-0.7,0.1-0.9,0.6-0.8c0.5,0,1,0.1,1.5,0.2c0.9,0.1,2.6,0,2.5,1.2
		c-0.1,1.6-2.1,3.5-3.5,2.1C36.3,13,36.1,13.2,36.2,13.3z"/>
</g>
<g>
	<path fill="#CECECE" d="M30.9,12.3c-1.7,0.9-2.7-0.9-2.8-2.3c-0.1-0.7,0.1-1.5,1-1.4c0.4,0,0.8,0.1,1.3,0.2C30.9,8.9,31.4,9,32,9.1
		c0.2,0,0.6,0,0.7,0.2C33.4,9.9,31.3,12.1,30.9,12.3c-0.1,0.1-0.1,0.2,0.1,0.2c0.7-0.5,1.1-1.1,1.6-1.8c0.2-0.4,0.6-0.9,0.4-1.4
		c-0.1-0.4-0.5-0.4-0.9-0.4c-0.8-0.1-1.6-0.3-2.3-0.4c-0.5-0.1-1-0.2-1.5,0.1c-0.4,0.3-0.4,1-0.4,1.5c0.1,1.5,1.4,3.2,3.1,2.4
		C31,12.5,31.1,12.3,30.9,12.3z"/>
</g>
<g>
	<path fill="#CECECE" d="M47.4,13.3c0.4,0,1.1,0,1.4-0.3c0.3-0.4,0.3-1,0.4-1.5c0.1-1.5-0.1-3.1-0.2-4.6c-0.2-1.6-0.2-3.4-0.8-4.9
		c-0.5-1.4-1.8-1-3-0.8c-1.1,0.2-2.3,0.2-2.4,1.5c-0.1,1.6,0.4,3.3,0.8,4.8c0.4,1.5,0.7,3,1.3,4.5c0.1,0.4,0.5,1.4,0.9,1.4
		C46.3,13.6,46.8,13.3,47.4,13.3c0.1,0,0.2-0.2,0-0.2c-0.5,0.1-1.2,0.4-1.7,0.1c-0.4-0.3-0.6-1-0.8-1.5c-0.4-1.1-0.7-2.3-1-3.5
		c-0.3-1.3-0.6-2.5-0.9-3.8c-0.1-0.6-0.2-1.3-0.1-2c0.1-1,1.3-1,2-1.1c0.5-0.1,1.1-0.2,1.6-0.3c1-0.1,1.3,0.6,1.5,1.3
		c0.4,1.2,0.4,2.4,0.6,3.6c0.1,1.4,0.3,2.7,0.3,4.1c0,0.5,0,1.1,0,1.6c0,0.4-0.1,1.1-0.5,1.3c-0.3,0.1-0.7,0.1-1,0.1
		C47.3,13.1,47.2,13.3,47.4,13.3z"/>
</g>
<g>
	<path fill="#CECECE" d="M43,1.9c-0.4-1.1,1.2-1.1,1.8-1.2c0.9-0.1,2.3-0.9,2.6,0.4c0,0.1,0.2,0,0.2-0.1c-0.1-0.5-0.3-0.8-0.9-0.8
		c-0.8-0.1-1.7,0.3-2.5,0.4C43.4,0.7,42.5,1,42.9,2C42.9,2.1,43.1,2,43,1.9L43,1.9z"/>
</g>
<g>
	<path fill="#CECECE" d="M46,13.6c0,0.3,0,0.8,0.3,1c0.3,0.2,0.9-0.1,1.2-0.2c0.3-0.1,0.8,0,1-0.3c0.3-0.4,0.1-0.7,0-1.1
		c0-0.1-0.2,0-0.2,0.1c0.1,0.3,0.3,0.8-0.2,1c-0.2,0.1-0.5,0.1-0.8,0.1c-0.3,0.1-0.9,0.3-1.1,0.1c-0.1-0.2-0.1-0.6-0.1-0.8
		C46.1,13.3,46,13.5,46,13.6L46,13.6z"/>
</g>
<path fill="#CECECE" d="M43.1,5.1C44.8,4.5,46.6,4,48.4,4c0.1,0,0.2-0.2,0.1-0.2c-1.9,0-3.6,0.5-5.4,1.1C43,4.9,43,5.1,43.1,5.1
	L43.1,5.1z"/>
<path fill="#CECECE" d="M44.3,10.5c1.5-0.6,3-1,4.7-1c0.1,0,0.2-0.2,0.1-0.2c-1.6,0-3.2,0.4-4.7,1C44.3,10.3,44.2,10.5,44.3,10.5
	L44.3,10.5z"/>
<path fill="#CECECE" d="M46.5,13.4c0.1,0.3,0.1,0.7,0.1,1"/>
<g>
	<path fill="#CECECE" d="M46.4,13.4c0.1,0.3,0.1,0.7,0.1,1c0,0.1,0.2,0,0.2-0.1c-0.1-0.3-0.1-0.7-0.1-1
		C46.5,13.2,46.4,13.4,46.4,13.4L46.4,13.4z"/>
</g>
<path fill="#CECECE" d="M46.9,13.4c0.1,0.3,0.1,0.6,0.1,1"/>
<g>
	<path fill="#CECECE" d="M46.8,13.4c0.1,0.3,0.1,0.6,0.1,1c0,0.1,0.2,0,0.2-0.1c-0.1-0.3-0.1-0.6-0.1-1C47,13.2,46.8,13.3,46.8,13.4
		L46.8,13.4z"/>
</g>
<path fill="#CECECE" d="M47.3,13.3c0.1,0.3,0.2,0.6,0.1,0.9"/>
<g>
	<path fill="#CECECE" d="M47.3,13.3c0.1,0.3,0.1,0.6,0.1,0.9c0,0.1,0.2,0,0.2,0c0-0.3-0.1-0.6-0.1-1C47.4,13.1,47.2,13.2,47.3,13.3
		L47.3,13.3z"/>
</g>
<path fill="#CECECE" d="M47.9,13.2c0,0.3,0.1,0.6,0.1,0.9"/>
<g>
	<path fill="#CECECE" d="M47.9,13.2c0,0.3,0.1,0.6,0.1,0.9c0,0.1,0.2,0,0.2,0c0-0.3-0.1-0.6-0.1-1C48,13,47.8,13.1,47.9,13.2
		L47.9,13.2z"/>
</g>
<g>
	<path fill="#CECECE" d="M45.9,5.9C44.8,6.1,45,7.9,46,8c0.6,0.1,1.1-0.5,1.2-1.1C47.2,6.2,46.6,5.7,45.9,5.9c0,0-0.1,0.1,0,0.1
		c0.6-0.1,1,0.3,1.1,0.8c0.1,0.6-0.5,1.1-1.1,1C45.2,7.6,45,6.2,45.9,6C46,6,46,5.9,45.9,5.9L45.9,5.9z"/>
</g>
<g>
	<g>
		<path fill="#CECECE" d="M46.3,5.6c0.2-0.1,0.4-0.2,0.6-0.3c0,0,0.2-0.2,0.2-0.2C47,5.4,47,5.6,47,5.8c0,0,0,0.1,0,0.1
			c0.1,0,0.6,0,0.6-0.1c-0.1,0.2-0.3,0.3-0.4,0.5c0,0,0,0.1,0,0.1c0.2,0,0.8,0,0.5,0.2c-0.1,0.1-0.3,0.2-0.4,0.3c0,0,0,0.1,0,0.1
			c0.2,0.2,0.4,0.3,0.6,0.4c0.3,0.3-0.2,0-0.3,0c-0.2,0-0.2,0-0.4,0.1c0,0-0.1,0.1-0.1,0.1c0.1,0.2,0.3,0.4,0.4,0.6
			c0.2,0.1,0.2,0.1-0.1,0C47.4,8.1,47.2,8.1,47,8c-0.1,0-0.1,0-0.1,0.1c0,0.2,0.2,0.7,0,0.6c-0.2-0.1-0.3-0.3-0.5-0.4
			c0,0-0.1,0-0.1,0c-0.1,0.2-0.1,0.2-0.2,0.4c-0.1,0.4-0.2-0.4-0.3-0.5c0-0.1-0.1,0-0.1,0c-0.7,0.5-0.5,0.2-0.4-0.4c0,0,0-0.1,0-0.1
			c-0.2,0-0.6,0.1-0.6,0.1c0.1-0.1,0.2-0.4,0.3-0.5c0.2-0.5-1.2,0.1-0.1-0.6c0,0,0.1-0.1,0-0.1c-0.1-0.1-0.2-0.3-0.4-0.4
			c0.1,0.1,0.4,0,0.4,0c0,0,0.1-0.1,0.1-0.1c0-0.2-0.4-0.8-0.1-0.6c0.2,0.1,0.4,0.2,0.7,0.2c0,0,0.1,0,0.1-0.1
			c0.1-0.3,0.1-0.5,0.2-0.8c-0.1,0-0.1,0.1-0.1,0.1c0.1,0.1,0.1,0.2,0.2,0.2C46.1,5.4,46.1,5.5,46.3,5.6c0,0.1,0.1-0.1,0.1-0.1
			C46.2,5.3,46,5,45.9,4.8c0-0.1-0.1,0-0.1,0.1c-0.1,0.2-0.1,0.5-0.2,0.7c0,0.2-0.7-0.3-0.9-0.3c-0.1,0-0.1,0.1-0.1,0.1
			c0.1,0.2,0.2,0.4,0.2,0.6c0,0.1-0.5,0.1-0.5,0.1c-0.1,0-0.1,0.1-0.1,0.1c0,0,0.6,0.4,0.4,0.5c-0.2,0.1-0.2,0.1-0.5,0.3
			c0,0-0.1,0.1,0,0.1c0.2,0.1,0.7,0.1,0.5,0.4c-0.1,0.1-0.2,0.2-0.3,0.3c0,0,0,0.1,0,0.1C44.9,8,45.2,8.2,45,8.7
			c0,0.1,0,0.1,0.1,0.1c0.7-0.5,0.7-0.3,0.9,0.4c0,0.1,0.1,0,0.1,0c0.1-0.2,0.2-0.7,0.3-0.6c0.2,0.1,0.3,0.3,0.5,0.4
			c0,0,0.1,0,0.1-0.1c0,0,0-0.7,0.1-0.6c0.3,0.1,0.6,0.2,0.9,0.3c0.1,0,0.1-0.1,0.1-0.1c-0.2-0.3-0.4-0.5-0.6-0.8c0,0,0.7,0,0.8-0.1
			c0.1,0,0.1-0.1,0.1-0.1c-0.2-0.2-0.4-0.3-0.6-0.5c-0.3-0.2,0.2-0.3,0.3-0.4c0,0,0.1-0.1,0-0.1c-0.6-0.2-0.6-0.2-0.3-0.6
			c0,0,0-0.1,0-0.1c-0.2,0.1-0.5,0.1-0.7,0c0-0.2,0.1-0.5,0.1-0.7c0-0.1-0.1-0.1-0.1,0c-0.3,0.2-0.5,0.5-0.9,0.7
			C46.2,5.5,46.2,5.7,46.3,5.6z"/>
	</g>
</g>
<path fill="#CECECE" d="M15.1,34.7c3.1,0,3,4.2,3.1,6.4c0,1.2,0.2,2.3,0.3,3.5c0.1,0.9,0.1,1.8-0.1,2.7c-0.3,1.3-1.8,2.1-3,1.4
	c-1.6-0.9-1.7-3.6-2.2-5.2c-0.4-1.4-1.4-2.7-1.7-4.1c-0.2-0.8-0.2-1.7,0.1-2.5C12.1,35.4,13.6,34.8,15.1,34.7c0.1,0,0.2-0.2,0.1-0.2
	c-2.5,0.1-4,1.6-3.9,4.1c0,0.9,0.2,1.6,0.6,2.3c0.6,1.2,1.1,2.3,1.4,3.6c0.3,1,0.4,2,0.9,2.9c0.6,1.4,1.9,2.2,3.3,1.4
	c1.2-0.7,1.3-2.4,1.3-3.7c-0.1-1.4-0.3-2.9-0.4-4.3c-0.1-1.4-0.1-2.9-0.6-4.3c-0.4-1.2-1.3-2-2.6-2.1C15.1,34.5,15,34.7,15.1,34.7z"
	/>
<g>
	<path fill="#CECECE" d="M14.3,36.7c0,1.5,0.7,3.2,0,4.6c-0.4,0.9-1.2,1.7-1.1,2.8c0,0.1,0.2,0,0.2,0c0-1.1,0.9-2.1,1.3-3.1
		c0.5-1.3-0.1-3-0.2-4.3C14.5,36.6,14.3,36.6,14.3,36.7L14.3,36.7z"/>
</g>
<g>
	<path fill="#CECECE" d="M14.3,36.8c0.6,1.3,0.8,2.7,1.7,3.8c0.8,0.9,2.3,1.6,2.4,2.9c0,0.1,0.2,0,0.2-0.1c0-1-1.1-1.9-1.9-2.5
		c-1.3-1.2-1.5-2.7-2.2-4.2C14.4,36.5,14.3,36.7,14.3,36.8L14.3,36.8z"/>
</g>
<g>
	<path fill="#CECECE" d="M25.6,35.3c-2.8-0.1-3.3,3.2-3.5,5.3c-0.1,1.4-0.2,2.8-0.5,4.2c-0.3,1.4-0.5,3.2,0.6,4.4
		c1.1,1.2,2.6,0.7,3.4-0.4c0.4-0.6,0.7-1.3,0.9-2c0.4-1.3,0.8-2.7,1.4-4c0.5-1,1.1-1.8,1.3-2.9c0.2-0.9,0.1-1.9-0.2-2.7
		C28.4,35.9,27,35.4,25.6,35.3c-0.1,0-0.2,0.2-0.1,0.2c1.4,0.1,2.7,0.6,3.3,2c0.3,0.8,0.3,1.8,0.1,2.7c-0.2,1.2-1.1,2.3-1.6,3.4
		c-0.8,1.8-0.9,4.3-2.4,5.7c-0.9,0.8-2.2,0.4-2.9-0.5c-0.5-0.7-0.6-1.7-0.5-2.6c0.1-1.3,0.5-2.7,0.6-4c0.2-2.2,0.1-6.8,3.4-6.7
		C25.7,35.5,25.7,35.3,25.6,35.3z"/>
</g>
<g>
	<path fill="#CECECE" d="M26.1,37.5c-0.1,1.4-0.6,2.7-0.5,4c0.1,1.2,1.3,2.1,1.2,3.4c0,0.1,0.2,0,0.2,0c0.1-1-0.6-1.9-1-2.8
		c-0.7-1.5,0.2-3.1,0.3-4.6C26.3,37.3,26.1,37.4,26.1,37.5L26.1,37.5z"/>
</g>
<g>
	<path fill="#CECECE" d="M26.2,37.5c-0.3,0.7-0.6,1.4-0.8,2.1c-0.4,0.9-0.9,1.6-1.7,2.2c-0.7,0.6-1.7,1.3-1.8,2.3c0,0.1,0.2,0,0.2,0
		c0.1-1.3,1.7-1.9,2.5-2.8c1-1.1,1.2-2.4,1.9-3.7C26.4,37.4,26.2,37.4,26.2,37.5L26.2,37.5z"/>
</g>
<g>
	<g>
		<path fill="#CECECE" d="M38.3,32.6c-0.5-0.5-0.9-1.2-1.2-1.8c-0.1-0.2-0.2-0.4-0.2-0.7c-0.1-0.4,0.4-1.1,0.8-0.7
			c0.4,0.3,0.6,0.8,0.8,1.3c0,0.1,0.2,0,0.2-0.1c0.1-0.5,0.5-1.1,1.1-0.9c0.8,0.2,0.2,1.3-0.1,1.6c-0.3,0.3-0.6,0.5-0.8,0.8
			C38.6,32.3,38.5,32.6,38.3,32.6c-0.1,0-0.2,0.2-0.1,0.2c0.1,0,0.2,0,0.2,0c0.1,0,0.1,0,0.1-0.1c0.3-1,2.4-1.7,1.6-3
			c-0.5-0.9-1.5,0.5-1.6,1c0.1,0,0.1,0,0.2-0.1c-0.2-0.6-1.3-2.4-1.8-1.1c-0.4,1.1,0.6,2.5,1.3,3.2C38.3,32.9,38.4,32.7,38.3,32.6z"
			/>
	</g>
</g>
<path fill="#CECECE" d="M22.5,15.9c-0.8-0.3-1.4-1.1-1.8-1.8c-0.2-0.4-0.3-1.7,0.4-1.4c0.4,0.1,0.7,0.7,0.9,1.1c0,0.1,0.2,0,0.2-0.1
	c0.2-0.5,0.8-1.2,1.3-0.8c0.5,0.3,0,1-0.2,1.4c-0.3,0.6-0.8,1.2-1,1.9c0,0.1,0.1,0.1,0.2,0c0.1-0.6,0.6-1.2,0.9-1.7
	c0.2-0.4,0.5-0.9,0.5-1.3c0-0.5-0.6-0.6-1-0.5c-0.4,0.1-0.8,0.6-0.9,1c0.1,0,0.1,0,0.2-0.1c-0.2-0.4-0.5-1.1-1-1.1
	c-0.4,0-0.6,0.3-0.7,0.6c-0.2,1.2,0.9,2.5,1.9,3C22.5,16.1,22.6,15.9,22.5,15.9L22.5,15.9z"/>
</svg>
